<?xml version="1.0" standalone="no"?>
<!DOCTYPE svg PUBLIC "-//W3C//DTD SVG 20010904//EN"
 "http://www.w3.org/TR/2001/REC-SVG-20010904/DTD/svg10.dtd">
<svg version="1.0" xmlns="http://www.w3.org/2000/svg"
 width="500.000000pt" height="500.000000pt" viewBox="0 0 500.000000 500.000000"
 preserveAspectRatio="xMidYMid meet">
<metadata>
Created by potrace 1.14, written by Peter Selinger 2001-2017
</metadata>
<g transform="translate(0.000000,500.000000) scale(0.100000,-0.100000)"
fill="#000000" stroke="none">
<path d="M662 4989 c-247 -42 -471 -212 -582 -443 -82 -171 -75 15 -75 -2046
0 -2061 -7 -1875 75 -2046 79 -163 211 -295 374 -374 171 -82 -15 -75 2046
-75 2061 0 1875 -7 2046 75 163 79 295 211 374 374 82 171 75 -15 75 2046 0
2061 7 1875 -75 2046 -79 163 -211 296 -374 374 -170 82 20 74 -2016 76 -1017
1 -1838 -2 -1868 -7z m1628 -1541 c0 -6 -6 -19 -14 -27 -7 -9 -80 -115 -161
-236 -251 -374 -338 -497 -360 -505 -11 -5 -63 -21 -115 -36 -227 -66 -533
-194 -738 -309 -121 -69 -172 -88 -172 -67 0 13 89 150 443 685 l336 507 391
0 c278 -1 390 -4 390 -12z m2397 -20 c-8 -13 -41 -63 -73 -113 -31 -49 -64
-96 -73 -102 -11 -10 -126 -13 -495 -13 l-481 -1 -64 -107 c-88 -147 -183
-296 -195 -303 -16 -12 -756 -11 -756 1 0 6 9 23 19 38 20 29 235 373 316 507
27 44 55 88 63 98 14 16 69 17 885 17 l869 0 -15 -22z m-1070 -748 l584 0 -20
-27 c-11 -16 -45 -70 -76 -120 l-56 -93 -417 -1 c-601 -3 -573 -1 -597 -37
-11 -16 -109 -166 -219 -333 -118 -182 -205 -305 -215 -306 -9 -1 -92 -6 -186
-11 -93 -6 -191 -15 -216 -21 -59 -13 -202 -31 -302 -38 l-78 -5 89 138 c49
77 144 224 211 327 68 104 121 190 118 193 -9 10 -173 -38 -251 -74 -196 -88
-372 -210 -628 -435 -89 -77 -101 -85 -130 -80 -18 3 -41 9 -50 14 -9 5 -27 9
-40 9 -13 0 -28 4 -33 9 -15 14 -327 34 -425 27 -47 -3 -109 -2 -139 2 l-54 7
121 116 c250 240 518 411 842 538 281 111 510 162 915 205 22 2 181 2 354 0
173 -2 577 -4 898 -4z"/>
</g>
</svg>
